<svg width="290" height="52" viewBox="0 0 290 52" fill="none" xmlns="http://www.w3.org/2000/svg">
<path d="M287.779 40.5309C287.779 41.7647 287.944 42.6695 288.273 43.2453C288.643 43.8211 289.219 44.2529 290 44.5408L287.964 50.8949C285.949 50.7304 284.304 50.2986 283.029 49.5994C281.754 48.8591 280.767 47.7076 280.068 46.1447C277.929 49.4349 274.639 51.08 270.197 51.08C266.948 51.08 264.357 50.1341 262.424 48.2422C260.491 46.3504 259.525 43.8828 259.525 40.8393C259.525 37.2613 260.841 34.5263 263.473 32.6345C266.105 30.7426 269.91 29.7967 274.886 29.7967H278.217V28.3778C278.217 26.4448 277.806 25.1288 276.983 24.4296C276.161 23.6893 274.721 23.3192 272.665 23.3192C271.596 23.3192 270.3 23.4837 268.779 23.8127C267.257 24.1006 265.694 24.5119 264.09 25.0465L261.869 18.6307C263.926 17.8493 266.023 17.2529 268.162 16.8416C270.341 16.4304 272.357 16.2247 274.207 16.2247C278.896 16.2247 282.33 17.1912 284.51 19.1242C286.689 21.0572 287.779 23.9566 287.779 27.8226V40.5309ZM273.035 44.1089C275.256 44.1089 276.983 43.0602 278.217 40.9627V35.1638H275.811C273.59 35.1638 271.925 35.5545 270.814 36.3359C269.745 37.1173 269.21 38.3306 269.21 39.9757C269.21 41.2917 269.539 42.3199 270.197 43.0602C270.897 43.7594 271.842 44.1089 273.035 44.1089Z" fill="#27160B"/>
<path d="M259.215 48.489C258.022 49.3115 256.624 49.949 255.02 50.4014C253.457 50.8538 251.894 51.08 250.331 51.08C243.175 51.0389 239.597 47.0907 239.597 39.2354V24.0595H234.97V17.2735H239.597V10.179L249.344 9.0686V17.2735H256.871L255.822 24.0595H249.344V39.112C249.344 40.6337 249.591 41.7236 250.085 42.3816C250.578 43.0396 251.36 43.3687 252.429 43.3687C253.539 43.3687 254.712 43.0191 255.945 42.3199L259.215 48.489Z" fill="#27160B"/>
<path d="M220.387 16.2247C222.731 16.2247 224.931 16.5743 226.988 17.2735C229.044 17.9726 230.854 18.9597 232.417 20.2346L228.838 25.7251C226.165 24.0389 223.471 23.1958 220.757 23.1958C219.482 23.1958 218.495 23.422 217.796 23.8744C217.138 24.2857 216.809 24.882 216.809 25.6634C216.809 26.2803 216.953 26.7944 217.241 27.2057C217.57 27.5758 218.207 27.9665 219.153 28.3778C220.099 28.7891 221.559 29.2826 223.533 29.8584C226.947 30.8454 229.476 32.1409 231.121 33.7449C232.807 35.3077 233.65 37.4875 233.65 40.2841C233.65 42.505 233.013 44.438 231.738 46.0831C230.463 47.687 228.715 48.9208 226.494 49.7845C224.273 50.6482 221.806 51.08 219.091 51.08C216.336 51.08 213.765 50.6482 211.38 49.7845C209.036 48.9208 207.041 47.7281 205.396 46.2064L210.146 40.901C212.902 43.0396 215.801 44.1089 218.845 44.1089C220.325 44.1089 221.477 43.8416 222.299 43.307C223.163 42.7723 223.595 42.0115 223.595 41.0244C223.595 40.243 223.43 39.6261 223.101 39.1737C222.772 38.7213 222.135 38.31 221.189 37.9399C220.243 37.5286 218.742 37.0351 216.685 36.4593C213.436 35.5134 211.01 34.1973 209.406 32.5111C207.802 30.8249 207 28.7274 207 26.2186C207 24.3268 207.535 22.6406 208.604 21.16C209.714 19.6383 211.277 18.4456 213.292 17.5819C215.349 16.6771 217.714 16.2247 220.387 16.2247Z" fill="#27160B"/>
<path d="M187.013 16.2247C192.031 16.2247 195.958 17.767 198.796 20.8515C201.634 23.8949 203.053 28.1722 203.053 33.6832C203.053 37.179 202.395 40.243 201.079 42.8751C199.804 45.4661 197.953 47.4814 195.527 48.9208C193.141 50.3603 190.303 51.08 187.013 51.08C182.037 51.08 178.109 49.5583 175.23 46.5149C172.393 43.4304 170.974 39.1326 170.974 33.6215C170.974 30.1257 171.611 27.0823 172.886 24.4913C174.202 21.8592 176.053 19.8234 178.438 18.3839C180.865 16.9445 183.723 16.2247 187.013 16.2247ZM187.013 23.3809C185.039 23.3809 183.559 24.224 182.572 25.9102C181.584 27.5553 181.091 30.1257 181.091 33.6215C181.091 37.1996 181.564 39.8112 182.51 41.4562C183.497 43.1013 184.998 43.9239 187.013 43.9239C188.987 43.9239 190.468 43.1013 191.455 41.4562C192.442 39.77 192.936 37.179 192.936 33.6832C192.936 30.1051 192.442 27.4936 191.455 25.8485C190.509 24.2034 189.028 23.3809 187.013 23.3809Z" fill="#27160B"/>
<path d="M156.188 6.23071C158.862 6.23071 161.227 6.62142 163.283 7.40284C165.38 8.18425 167.354 9.35638 169.205 10.9192L164.393 16.6565C163.118 15.6694 161.864 14.9291 160.63 14.4356C159.396 13.9421 158.08 13.6953 156.682 13.6953C153.803 13.6953 151.521 14.9085 149.834 17.335C148.189 19.7616 147.367 23.5041 147.367 28.5628C147.367 33.5392 148.189 37.2406 149.834 39.6671C151.521 42.0525 153.844 43.2452 156.805 43.2452C158.368 43.2452 159.787 42.9573 161.062 42.3815C162.337 41.7646 163.715 40.9009 165.195 39.7905L169.699 45.5894C168.095 47.1934 166.141 48.5094 163.838 49.5376C161.576 50.5658 159.067 51.0799 156.312 51.0799C152.364 51.0799 148.93 50.2162 146.009 48.4889C143.089 46.7615 140.807 44.2117 139.162 40.8392C137.558 37.4257 136.756 33.3335 136.756 28.5628C136.756 23.9154 137.578 19.9055 139.223 16.5331C140.91 13.1606 143.213 10.6108 146.133 8.88341C149.094 7.11495 152.446 6.23071 156.188 6.23071Z" fill="#27160B"/>
<path d="M102.068 16.2247C107.085 16.2247 111.013 17.767 113.851 20.8515C116.689 23.8949 118.108 28.1722 118.108 33.6832C118.108 37.179 117.449 40.243 116.133 42.8751C114.858 45.4661 113.008 47.4814 110.581 48.9208C108.196 50.3603 105.358 51.08 102.068 51.08C97.0915 51.08 93.1639 49.5583 90.285 46.5149C87.4472 43.4304 86.0283 39.1326 86.0283 33.6215C86.0283 30.1257 86.6658 27.0823 87.9407 24.4913C89.2568 21.8592 91.1075 19.8234 93.4929 18.3839C95.9194 16.9445 98.7777 16.2247 102.068 16.2247ZM102.068 23.3809C100.094 23.3809 98.6132 24.224 97.6262 25.9102C96.6391 27.5553 96.1456 30.1257 96.1456 33.6215C96.1456 37.1996 96.6186 39.8112 97.5645 41.4562C98.5515 43.1013 100.053 43.9239 102.068 43.9239C104.042 43.9239 105.523 43.1013 106.51 41.4562C107.497 39.77 107.99 37.179 107.99 33.6832C107.99 30.1051 107.497 27.4936 106.51 25.8485C105.564 24.2034 104.083 23.3809 102.068 23.3809Z" fill="#27160B"/>
<path d="M80.2152 17.2734V50.0312H70.4681V17.2734H80.2152ZM75.28 0C76.9662 0 78.3439 0.534654 79.4132 1.60396C80.5237 2.63214 81.0789 3.94821 81.0789 5.55217C81.0789 7.15613 80.5237 8.49276 79.4132 9.56207C78.3439 10.5902 76.9662 11.1043 75.28 11.1043C73.5938 11.1043 72.216 10.5902 71.1467 9.56207C70.0774 8.49276 69.5427 7.15613 69.5427 5.55217C69.5427 3.94821 70.0774 2.63214 71.1467 1.60396C72.216 0.534654 73.5938 0 75.28 0Z" fill="#27160B"/>
<path d="M62.7043 40.5309C62.7043 41.7647 62.8688 42.6695 63.1978 43.2453C63.568 43.8211 64.1438 44.2529 64.9252 44.5408L62.8894 50.8949C60.8742 50.7304 59.2291 50.2986 57.9541 49.5994C56.6792 48.8591 55.6921 47.7076 54.993 46.1447C52.8544 49.4349 49.5642 51.08 45.1225 51.08C41.8734 51.08 39.2824 50.1341 37.3494 48.2422C35.4164 46.3504 34.45 43.8828 34.45 40.8393C34.45 37.2613 35.766 34.5263 38.3982 32.6345C41.0303 30.7426 44.8346 29.7967 49.8109 29.7967H53.1422V28.3778C53.1422 26.4448 52.731 25.1288 51.9084 24.4296C51.0859 23.6893 49.6464 23.3192 47.5901 23.3192C46.5208 23.3192 45.2253 23.4837 43.7036 23.8127C42.1819 24.1006 40.619 24.5119 39.0151 25.0465L36.7942 18.6307C38.8506 17.8493 40.948 17.2529 43.0867 16.8416C45.2664 16.4304 47.2816 16.2247 49.1324 16.2247C53.8208 16.2247 57.255 17.1912 59.4347 19.1242C61.6144 21.0572 62.7043 23.9566 62.7043 27.8226V40.5309ZM47.9602 44.1089C50.1811 44.1089 51.9084 43.0602 53.1422 40.9627V35.1638H50.7363C48.5154 35.1638 46.8498 35.5545 45.7394 36.3359C44.6701 37.1173 44.1354 38.3306 44.1354 39.9757C44.1354 41.2917 44.4644 42.3199 45.1225 43.0602C45.8216 43.7594 46.7675 44.1089 47.9602 44.1089Z" fill="#27160B"/>
<path d="M19.4326 6.23071C22.1059 6.23071 24.4707 6.62142 26.527 7.40284C28.6245 8.18425 30.5986 9.35638 32.4493 10.9192L27.6375 16.6565C26.3625 15.6694 25.1081 14.9291 23.8743 14.4356C22.6405 13.9421 21.3244 13.6953 19.9261 13.6953C17.0472 13.6953 14.7647 14.9085 13.0784 17.335C11.4334 19.7616 10.6108 23.5041 10.6108 28.5628C10.6108 33.5392 11.4334 37.2406 13.0784 39.6671C14.7647 42.0525 17.0883 43.2452 20.0495 43.2452C21.6123 43.2452 23.0312 42.9573 24.3062 42.3815C25.5811 41.7646 26.9589 40.9009 28.4394 39.7905L32.9429 45.5894C31.3389 47.1934 29.3854 48.5094 27.0822 49.5376C24.8202 50.5658 22.3115 51.0799 19.556 51.0799C15.6078 51.0799 12.1736 50.2162 9.25361 48.4889C6.33358 46.7615 4.05103 44.2117 2.40594 40.8392C0.80198 37.4257 0 33.3335 0 28.5628C0 23.9154 0.822543 19.9055 2.46763 16.5331C4.15384 13.1606 6.45696 10.6108 9.37699 8.88341C12.3381 7.11495 15.69 6.23071 19.4326 6.23071Z" fill="#27160B"/>
</svg>
